<mxfile host="app.diagrams.net" agent="Mozilla/5.0 (Windows NT 10.0; Win64; x64) AppleWebKit/537.36 (KHTML, like Gecko) Chrome/130.0.0.0 Safari/537.36 Edg/130.0.0.0" version="24.8.6">
  <diagram id="C5RBs43oDa-KdzZeNtuy" name="Page-1">
    <mxGraphModel dx="872" dy="803" grid="1" gridSize="10" guides="1" tooltips="1" connect="1" arrows="1" fold="1" page="1" pageScale="1" pageWidth="827" pageHeight="1169" math="0" shadow="0">
      <root>
        <mxCell id="WIyWlLk6GJQsqaUBKTNV-0" />
        <mxCell id="WIyWlLk6GJQsqaUBKTNV-1" parent="WIyWlLk6GJQsqaUBKTNV-0" />
        <mxCell id="CuezIsUQjXc_RTp8R77G-4" value="" style="edgeStyle=orthogonalEdgeStyle;rounded=0;orthogonalLoop=1;jettySize=auto;html=1;" edge="1" parent="WIyWlLk6GJQsqaUBKTNV-1" source="CuezIsUQjXc_RTp8R77G-0" target="CuezIsUQjXc_RTp8R77G-3">
          <mxGeometry relative="1" as="geometry" />
        </mxCell>
        <mxCell id="CuezIsUQjXc_RTp8R77G-0" value="start" style="ellipse;whiteSpace=wrap;html=1;" vertex="1" parent="WIyWlLk6GJQsqaUBKTNV-1">
          <mxGeometry x="353" y="30" width="120" height="80" as="geometry" />
        </mxCell>
        <mxCell id="CuezIsUQjXc_RTp8R77G-6" value="" style="edgeStyle=orthogonalEdgeStyle;rounded=0;orthogonalLoop=1;jettySize=auto;html=1;" edge="1" parent="WIyWlLk6GJQsqaUBKTNV-1" source="CuezIsUQjXc_RTp8R77G-3" target="CuezIsUQjXc_RTp8R77G-5">
          <mxGeometry relative="1" as="geometry" />
        </mxCell>
        <mxCell id="CuezIsUQjXc_RTp8R77G-3" value="nhập a, b" style="shape=parallelogram;perimeter=parallelogramPerimeter;whiteSpace=wrap;html=1;fixedSize=1;" vertex="1" parent="WIyWlLk6GJQsqaUBKTNV-1">
          <mxGeometry x="353" y="160" width="120" height="60" as="geometry" />
        </mxCell>
        <mxCell id="CuezIsUQjXc_RTp8R77G-12" value="sai" style="edgeStyle=orthogonalEdgeStyle;rounded=0;orthogonalLoop=1;jettySize=auto;html=1;" edge="1" parent="WIyWlLk6GJQsqaUBKTNV-1" source="CuezIsUQjXc_RTp8R77G-5" target="CuezIsUQjXc_RTp8R77G-11">
          <mxGeometry y="17" relative="1" as="geometry">
            <Array as="points">
              <mxPoint x="413" y="390" />
              <mxPoint x="413" y="390" />
            </Array>
            <mxPoint as="offset" />
          </mxGeometry>
        </mxCell>
        <mxCell id="CuezIsUQjXc_RTp8R77G-14" value="đúng" style="edgeStyle=orthogonalEdgeStyle;rounded=0;orthogonalLoop=1;jettySize=auto;html=1;" edge="1" parent="WIyWlLk6GJQsqaUBKTNV-1" source="CuezIsUQjXc_RTp8R77G-5" target="CuezIsUQjXc_RTp8R77G-13">
          <mxGeometry x="-0.0526" y="10" relative="1" as="geometry">
            <mxPoint as="offset" />
          </mxGeometry>
        </mxCell>
        <mxCell id="CuezIsUQjXc_RTp8R77G-5" value="a=0" style="rhombus;whiteSpace=wrap;html=1;" vertex="1" parent="WIyWlLk6GJQsqaUBKTNV-1">
          <mxGeometry x="353" y="280" width="120" height="80" as="geometry" />
        </mxCell>
        <mxCell id="CuezIsUQjXc_RTp8R77G-20" value="" style="edgeStyle=orthogonalEdgeStyle;rounded=0;orthogonalLoop=1;jettySize=auto;html=1;" edge="1" parent="WIyWlLk6GJQsqaUBKTNV-1" source="CuezIsUQjXc_RTp8R77G-11" target="CuezIsUQjXc_RTp8R77G-19">
          <mxGeometry relative="1" as="geometry" />
        </mxCell>
        <mxCell id="CuezIsUQjXc_RTp8R77G-11" value="phương trình có 1 nghiệm duy nhất&lt;div&gt;x=-b/a&lt;/div&gt;" style="whiteSpace=wrap;html=1;" vertex="1" parent="WIyWlLk6GJQsqaUBKTNV-1">
          <mxGeometry x="353" y="420" width="120" height="60" as="geometry" />
        </mxCell>
        <mxCell id="CuezIsUQjXc_RTp8R77G-16" value="sai" style="edgeStyle=orthogonalEdgeStyle;rounded=0;orthogonalLoop=1;jettySize=auto;html=1;" edge="1" parent="WIyWlLk6GJQsqaUBKTNV-1" source="CuezIsUQjXc_RTp8R77G-13" target="CuezIsUQjXc_RTp8R77G-15">
          <mxGeometry y="10" relative="1" as="geometry">
            <mxPoint as="offset" />
          </mxGeometry>
        </mxCell>
        <mxCell id="CuezIsUQjXc_RTp8R77G-18" value="đúng" style="edgeStyle=orthogonalEdgeStyle;rounded=0;orthogonalLoop=1;jettySize=auto;html=1;" edge="1" parent="WIyWlLk6GJQsqaUBKTNV-1" source="CuezIsUQjXc_RTp8R77G-13" target="CuezIsUQjXc_RTp8R77G-17">
          <mxGeometry y="10" relative="1" as="geometry">
            <mxPoint as="offset" />
          </mxGeometry>
        </mxCell>
        <mxCell id="CuezIsUQjXc_RTp8R77G-13" value="b=0" style="rhombus;whiteSpace=wrap;html=1;" vertex="1" parent="WIyWlLk6GJQsqaUBKTNV-1">
          <mxGeometry x="530" y="280" width="120" height="80" as="geometry" />
        </mxCell>
        <mxCell id="CuezIsUQjXc_RTp8R77G-21" style="edgeStyle=orthogonalEdgeStyle;rounded=0;orthogonalLoop=1;jettySize=auto;html=1;exitX=0.5;exitY=1;exitDx=0;exitDy=0;entryX=1;entryY=0.5;entryDx=0;entryDy=0;" edge="1" parent="WIyWlLk6GJQsqaUBKTNV-1" source="CuezIsUQjXc_RTp8R77G-15" target="CuezIsUQjXc_RTp8R77G-19">
          <mxGeometry relative="1" as="geometry" />
        </mxCell>
        <mxCell id="CuezIsUQjXc_RTp8R77G-15" value="phương trình vô nghiệm" style="whiteSpace=wrap;html=1;" vertex="1" parent="WIyWlLk6GJQsqaUBKTNV-1">
          <mxGeometry x="530" y="420" width="120" height="60" as="geometry" />
        </mxCell>
        <mxCell id="CuezIsUQjXc_RTp8R77G-23" style="edgeStyle=orthogonalEdgeStyle;rounded=0;orthogonalLoop=1;jettySize=auto;html=1;exitX=0.5;exitY=1;exitDx=0;exitDy=0;entryX=1;entryY=0.5;entryDx=0;entryDy=0;" edge="1" parent="WIyWlLk6GJQsqaUBKTNV-1" source="CuezIsUQjXc_RTp8R77G-17" target="CuezIsUQjXc_RTp8R77G-19">
          <mxGeometry relative="1" as="geometry" />
        </mxCell>
        <mxCell id="CuezIsUQjXc_RTp8R77G-17" value="phương trình vô số nghiệm" style="whiteSpace=wrap;html=1;" vertex="1" parent="WIyWlLk6GJQsqaUBKTNV-1">
          <mxGeometry x="730" y="290" width="120" height="60" as="geometry" />
        </mxCell>
        <mxCell id="CuezIsUQjXc_RTp8R77G-19" value="end" style="ellipse;whiteSpace=wrap;html=1;" vertex="1" parent="WIyWlLk6GJQsqaUBKTNV-1">
          <mxGeometry x="353" y="550" width="120" height="80" as="geometry" />
        </mxCell>
      </root>
    </mxGraphModel>
  </diagram>
</mxfile>
